# xmcd
#
# Track frame offsets:
#	150
#	60816
#	62052
#	84582
#	112521
#	144357
#	175237
#	210032
#	225070
#	257175
#	290079
#	311784
#	328609
#
# Disc length: 4724 seconds
#
# Revision: 1
# Processed by: cddbd v1.5.2PL0 Copyright (c) Steve Scherf et al.
# Submitted via: audiograbber 1.83.01
#
DISCID=a312720d
DTITLE=Grateful Dead - 70-03-24 Pirate's World, Dania FL
DYEAR=1900
DGENRE=
TTITLE0=Dark Star
TTITLE1=Jam
TTITLE2=The Other One
TTITLE3=St Stephen > Drums
TTITLE4=Not Fade Away
TTITLE5=Turn On Your Lovelight
TTITLE6=Jam
TTITLE7=Me and My Uncle
TTITLE8=Easy Wind
TTITLE9=Candyman
TTITLE10=Casey Jones
TTITLE11=Brokedown Palace
TTITLE12=Uncle John's Band
EXTD=
EXTT0=
EXTT1=
EXTT2=
EXTT3=
EXTT4=
EXTT5=
EXTT6=
EXTT7=
EXTT8=
EXTT9=
EXTT10=
EXTT11=
EXTT12=
PLAYORDER=
